

<svg
   width="1200.5591"
   height="950.51965"
   viewBox="0 0 317.64792 251.49167"
   version="1.1"
   id="svg8">
  <defs
     id="defs2">
    <linearGradient
       gradientUnits="userSpaceOnUse"
       y2="326.59686"
       x2="882.01746"
       y1="830.63696"
       x1="882.01746"
       id="b604d933-963c-47a0-8899-51e94ba39cbc"
       gradientTransform="translate(-41.000004,123.40975)">
      <stop
         id="stop3680"
         stop-opacity="0.25"
         stop-color="gray"
         offset="0" />
      <stop
         id="stop3682"
         stop-opacity="0.12"
         stop-color="gray"
         offset="0.53514" />
      <stop
         id="stop3684"
         stop-opacity="0.1"
         stop-color="gray"
         offset="1" />
    </linearGradient>
  </defs>
  <sodipodi:namedview
     id="base"
     pagecolor="#ffffff"
     bordercolor="#666666"
     borderopacity="1.0"
     inkscape:pageopacity="0.0"
     inkscape:pageshadow="2"
     inkscape:zoom="0.79707031"
     inkscape:cx="757.63016"
     inkscape:cy="564.83293"
     inkscape:document-units="mm"
     inkscape:current-layer="layer1"
     showgrid="false"
     units="px"
     showguides="true"
     inkscape:window-width="1366"
     inkscape:window-height="715"
     inkscape:window-x="-8"
     inkscape:window-y="-8"
     inkscape:window-maximized="1"
     inkscape:showpageshadow="false"
     showborder="false" />
  <metadata
     id="metadata5">
    <rdf:RDF>
      <cc:Work
         rdf:about="">
        <dc:format>image/svg+xml</dc:format>
        <dc:type
           rdf:resource="http://purl.org/dc/dcmitype/StillImage" />
        <dc:title></dc:title>
      </cc:Work>
    </rdf:RDF>
  </metadata>
  <g
     inkscape:label="Layer 1"
     inkscape:groupmode="layer"
     id="layer1"
     transform="translate(0,-45.508335)">
    <g
       id="g4102"
       transform="matrix(0.26458333,0,0,0.26458333,-92.799247,112.78666)">
      <ellipse
         id="ellipse3691"
         ry="67.945709"
         rx="559"
         cy="554.44354"
         cx="951.01685"
         style="opacity:0.1;fill:#6c63ff" />
      <path
         id="path3693"
         stroke-miterlimit="10"
         d="m 1343.6625,587.74812 c 0,0 29.1545,-37.09867 26.7971,-73.90617 a 71.48961,71.48961 0 0 1 11.2505,-43.79869 120.23213,120.23213 0 0 1 13.6988,-17.199"
         inkscape:connector-curvature="0"
         style="fill:none;stroke:#535461;stroke-width:2;stroke-miterlimit:10" />
      <path
         id="path3695"
         d="m 1394.0617,429.63964 c -2.0556,5.152 1.3119,23.81438 1.3119,23.81438 0,0 15.2896,-11.21824 17.3453,-16.37028 a 10.043726,10.043726 0 0 0 -18.6572,-7.4441 z"
         inkscape:connector-curvature="0"
         style="fill:#6c63ff" />
      <path
         id="path3697"
         d="m 1367.2553,452.02538 c 1.0746,5.44191 14.0442,19.27711 14.0442,19.27711 0,0 6.7373,-17.7266 5.6627,-23.16851 a 10.043716,10.043716 0 1 0 -19.7069,3.8914 z"
         inkscape:connector-curvature="0"
         style="fill:#6c63ff" />
      <path
         id="path3699"
         d="m 1348.4707,501.06187 c 3.6748,4.15516 21.8547,9.55092 21.8547,9.55092 0,0 -3.1327,-18.70319 -6.8075,-22.85835 a 10.043728,10.043728 0 1 0 -15.0472,13.30743 z"
         inkscape:connector-curvature="0"
         style="fill:#6c63ff" />
      <path
         id="path3701"
         d="m 1342.6129,541.36438 c 2.9197,4.7164 19.9263,13.10683 19.9263,13.10683 0,0 0.073,-18.9636 -2.8467,-23.68 a 10.043713,10.043713 0 1 0 -17.0796,10.57317 z"
         inkscape:connector-curvature="0"
         style="fill:#6c63ff" />
      <path
         id="path3703"
         d="m 1400.4885,480.11571 c -5.1277,2.1154 -23.828,-1.03487 -23.828,-1.03487 0,0 11.0398,-15.41908 16.1675,-17.53448 a 10.043724,10.043724 0 1 1 7.6606,18.56935 z"
         inkscape:connector-curvature="0"
         style="fill:#6c63ff" />
      <path
         id="path3705"
         d="m 1393.0398,527.1629 c -5.5258,0.48418 -22.4267,-8.11712 -22.4267,-8.11712 0,0 15.1475,-11.40945 20.6734,-11.89364 a 10.04372,10.04372 0 1 1 1.7533,20.01076 z"
         inkscape:connector-curvature="0"
         style="fill:#6c63ff" />
      <path
         id="path3707"
         d="m 1379.5254,571.89684 c -5.3645,1.411 -23.4759,-4.21042 -23.4759,-4.21042 0,0 13.0015,-13.80518 18.3661,-15.21622 a 10.043713,10.043713 0 0 1 5.1098,19.42664 z"
         inkscape:connector-curvature="0"
         style="fill:#6c63ff" />
      <path
         id="path3709"
         d="m 1394.0617,429.63964 c -2.0556,5.152 1.3119,23.81438 1.3119,23.81438 0,0 15.2896,-11.21824 17.3453,-16.37028 a 10.043726,10.043726 0 0 0 -18.6572,-7.4441 z"
         inkscape:connector-curvature="0"
         style="opacity:0.25" />
      <path
         id="path3711"
         d="m 1367.2553,452.02538 c 1.0746,5.44191 14.0442,19.27711 14.0442,19.27711 0,0 6.7373,-17.7266 5.6627,-23.16851 a 10.043716,10.043716 0 1 0 -19.7069,3.8914 z"
         inkscape:connector-curvature="0"
         style="opacity:0.25" />
      <path
         id="path3713"
         d="m 1348.4707,501.06187 c 3.6748,4.15516 21.8547,9.55092 21.8547,9.55092 0,0 -3.1327,-18.70319 -6.8075,-22.85835 a 10.043728,10.043728 0 1 0 -15.0472,13.30743 z"
         inkscape:connector-curvature="0"
         style="opacity:0.25" />
      <path
         id="path3715"
         d="m 1342.6129,541.36438 c 2.9197,4.7164 19.9263,13.10683 19.9263,13.10683 0,0 0.073,-18.9636 -2.8467,-23.68 a 10.043713,10.043713 0 1 0 -17.0796,10.57317 z"
         inkscape:connector-curvature="0"
         style="opacity:0.25" />
      <path
         id="path3717"
         d="m 1400.4885,480.11571 c -5.1277,2.1154 -23.828,-1.03487 -23.828,-1.03487 0,0 11.0398,-15.41908 16.1675,-17.53448 a 10.043724,10.043724 0 1 1 7.6606,18.56935 z"
         inkscape:connector-curvature="0"
         style="opacity:0.25" />
      <path
         id="path3719"
         d="m 1393.0398,527.1629 c -5.5258,0.48418 -22.4267,-8.11712 -22.4267,-8.11712 0,0 15.1475,-11.40945 20.6734,-11.89364 a 10.04372,10.04372 0 1 1 1.7533,20.01076 z"
         inkscape:connector-curvature="0"
         style="opacity:0.25" />
      <path
         id="path3721"
         d="m 1379.5254,571.89684 c -5.3645,1.411 -23.4759,-4.21042 -23.4759,-4.21042 0,0 13.0015,-13.80518 18.3661,-15.21622 a 10.043713,10.043713 0 0 1 5.1098,19.42664 z"
         inkscape:connector-curvature="0"
         style="opacity:0.25" />
      <path
         id="path3723"
         stroke-miterlimit="10"
         d="m 1343.9095,586.20355 c 0,0 41.6868,-22.10219 54.4469,-56.70754 a 71.48967,71.48967 0 0 1 28.0336,-35.48261 120.23268,120.23268 0 0 1 19.4931,-10.17255"
         inkscape:connector-curvature="0"
         style="fill:none;stroke:#535461;stroke-width:2;stroke-miterlimit:10" />
      <path
         id="path3725"
         d="m 1454.0546,462.08087 c -3.967,3.87709 -8.4509,22.30313 -8.4509,22.30313 0,0 18.524,-4.06019 22.491,-7.93728 a 10.043712,10.043712 0 0 0 -14.0401,-14.36585 z"
         inkscape:connector-curvature="0"
         style="fill:#6c63ff" />
      <path
         id="path3727"
         d="m 1420.4764,471.68373 c -1.2228,5.41054 5.0279,23.31451 5.0279,23.31451 0,0 13.3426,-13.47587 14.5654,-18.8864 a 10.043724,10.043724 0 0 0 -19.5933,-4.42811 z"
         inkscape:connector-curvature="0"
         style="fill:#6c63ff" />
      <path
         id="path3729"
         d="m 1383.4326,508.90185 c 1.6757,5.28781 16.1096,17.58762 16.1096,17.58762 0,0 4.715,-18.36825 3.0392,-23.65606 a 10.043714,10.043714 0 1 0 -19.1488,6.06844 z"
         inkscape:connector-curvature="0"
         style="fill:#6c63ff" />
      <path
         id="path3731"
         d="m 1361.7457,543.3734 c 0.7581,5.49495 12.9058,20.05709 12.9058,20.05709 0,0 7.7513,-17.30728 6.9932,-22.80222 a 10.043729,10.043729 0 1 0 -19.899,2.74513 z"
         inkscape:connector-curvature="0"
         style="fill:#6c63ff" />
      <path
         id="path3733"
         d="m 1439.476,510.8313 c -5.5451,-0.144 -21.3646,-10.60177 -21.3646,-10.60177 0,0 16.3408,-9.62285 21.886,-9.47889 a 10.043714,10.043714 0 0 1 -0.5214,20.08066 z"
         inkscape:connector-curvature="0"
         style="fill:#6c63ff" />
      <path
         id="path3735"
         d="m 1413.6017,550.82429 c -5.248,-1.79654 -17.2137,-16.50865 -17.2137,-16.50865 0,0 18.4715,-4.29259 23.7195,-2.496 a 10.043712,10.043712 0 0 1 -6.5058,19.0047 z"
         inkscape:connector-curvature="0"
         style="fill:#6c63ff" />
      <path
         id="path3737"
         d="m 1383.1193,586.24455 c -5.4761,-0.88383 -19.7559,-13.36222 -19.7559,-13.36222 0,0 17.4804,-7.35241 22.9565,-6.46858 a 10.043712,10.043712 0 0 1 -3.2006,19.8308 z"
         inkscape:connector-curvature="0"
         style="fill:#6c63ff" />
      <path
         id="ill_wallpaper"
         d="m 1024.3154,-85.352587 c -55.23698,-1.91782 -107.84678,-19.750003 -158.08326,-39.259673 -50.23652,-19.50967 -99.99712,-41.12477 -153.91128,-51.46263 -34.67659,-6.64912 -74.3324,-7.58988 -102.27311,11.0022 -26.88732,17.89113 -35.5752,48.775 -40.24617,77.431293 -3.51427,21.56 -5.58038,44.25117 4.04873,64.43513 6.68515,14.0130002 18.55538,25.7921002 26.76376,39.21411 28.56248,46.70419 8.37426,104.295647 -22.57894,149.898157 -14.51955,21.39126 -31.3609,41.79852 -42.56505,64.57 -11.20415,22.77148 -16.38724,48.86421 -6.58463,72.09313 9.71618,23.0241 32.87083,40.31823 57.95274,52.48183 50.94227,24.70472 110.9724,31.77548 169.50971,35.78007 129.57911,8.86461 259.8502,5.02668 389.7734,1.18282 48.0815,-1.42252 96.3749,-2.86408 143.6752,-10.29895 26.2667,-4.12871 53.3854,-10.68184 72.4547,-26.50142 24.2083,-20.08285 30.2088,-54.08912 13.9874,-79.27063 -27.2096,-42.23918 -102.4409,-52.7307 -121.4589,-98.06054 -10.4683,-24.9516 0.2821,-52.74482 15.4951,-75.88559 32.6353,-49.642187 87.3366,-93.1932668 90.2179,-149.935057 1.9789,-38.97118 -24.3171,-77.999703 -64.9766,-96.438503 -42.6192,-19.32754 -101.7174,-16.89633 -133.1586,15.09726 -32.3757,32.944353 -89.2714,45.620303 -138.0421,43.926993 z"
         inkscape:connector-curvature="0"
         style="opacity:0.1;fill:#6c63ff;fill-opacity:1" />
      <ellipse
         id="ellipse3741"
         ry="39.865372"
         rx="37.556911"
         cy="484.10327"
         cx="929.73938"
         style="fill:#fbd56f" />
      <ellipse
         id="ellipse3743"
         ry="39.865372"
         rx="37.556911"
         cy="484.10327"
         cx="929.73938"
         style="opacity:0.1" />
      <ellipse
         id="ellipse3745"
         ry="38.977501"
         rx="37.556911"
         cy="484.99115"
         cx="936.22107"
         style="fill:#fbd56f" />
      <path
         id="path3747"
         d="m 951.43292,520.31362 -3.9066,-2.17528 c 0,0 -1.8273,7.62536 -1.23,13.05926 a 2.707,2.707 0 0 0 2.0343,2.33847 c 8.987,2.23181 51.82048,11.74046 81.27528,-1.65234 a 2.70278,2.70278 0 0 0 1.5654,-2.172 c 0.3613,-3.33959 -0.9177,-10.23078 -1.4282,-11.57336 -1.0987,-2.88951 -78.31018,2.17525 -78.31018,2.17525 z"
         inkscape:connector-curvature="0"
         style="fill:#fbd56f" />
      <path
         id="path3749"
         d="m 951.43292,520.31362 -3.9066,-2.17528 c 0,0 -1.8273,7.62536 -1.23,13.05926 a 2.707,2.707 0 0 0 2.0343,2.33847 c 8.987,2.23181 51.82048,11.74046 81.27528,-1.65234 a 2.70278,2.70278 0 0 0 1.5654,-2.172 c 0.3613,-3.33959 -0.9177,-10.23078 -1.4282,-11.57336 -1.0987,-2.88951 -78.31018,2.17525 -78.31018,2.17525 z"
         inkscape:connector-curvature="0"
         style="opacity:0.1" />
      <ellipse
         id="ellipse3751"
         ry="9.2663803"
         rx="41.108391"
         cy="518.13831"
         cx="988.63464"
         style="fill:#fbd56f" />
      <path
         id="path3753"
         d="m 967.13862,506.64193 -3.9066,-2.17528 c 0,0 -1.8273,7.62536 -1.23,13.05926 a 2.707,2.707 0 0 0 2.0343,2.33848 c 8.987,2.2318 51.82038,11.74045 81.27518,-1.65235 a 2.70279,2.70279 0 0 0 1.5655,-2.172 c 0.3612,-3.33959 -0.9178,-10.23078 -1.4283,-11.57336 -1.0987,-2.88951 -78.31008,2.17525 -78.31008,2.17525 z"
         inkscape:connector-curvature="0"
         style="fill:#fbd56f" />
      <path
         id="path3755"
         d="m 967.13862,506.64193 -3.9066,-2.17528 c 0,0 -1.8273,7.62536 -1.23,13.05926 a 2.707,2.707 0 0 0 2.0343,2.33848 c 8.987,2.2318 51.82038,11.74045 81.27518,-1.65235 a 2.70279,2.70279 0 0 0 1.5655,-2.172 c 0.3612,-3.33959 -0.9178,-10.23078 -1.4283,-11.57336 -1.0987,-2.88951 -78.31008,2.17525 -78.31008,2.17525 z"
         inkscape:connector-curvature="0"
         style="opacity:0.1" />
      <ellipse
         id="ellipse3757"
         ry="9.2663803"
         rx="41.108391"
         cy="504.46661"
         cx="1004.3403"
         style="fill:#fbd56f" />
      <path
         id="path3759"
         d="m 981.02322,488.67314 -3.9066,-2.17528 c 0,0 -1.8273,7.62536 -1.23,13.05926 a 2.707,2.707 0 0 0 2.0343,2.33847 c 8.987,2.23181 51.82048,11.74046 81.27518,-1.65234 a 2.70279,2.70279 0 0 0 1.5655,-2.172 c 0.3613,-3.33958 -0.9177,-10.23077 -1.4283,-11.57335 -1.0987,-2.88952 -78.31008,2.17524 -78.31008,2.17524 z"
         inkscape:connector-curvature="0"
         style="fill:#fbd56f" />
      <path
         id="path3761"
         d="m 981.02322,488.67314 -3.9066,-2.17528 c 0,0 -1.8273,7.62536 -1.23,13.05926 a 2.707,2.707 0 0 0 2.0343,2.33847 c 8.987,2.23181 51.82048,11.74046 81.27518,-1.65234 a 2.70279,2.70279 0 0 0 1.5655,-2.172 c 0.3613,-3.33958 -0.9177,-10.23077 -1.4283,-11.57335 -1.0987,-2.88952 -78.31008,2.17524 -78.31008,2.17524 z"
         inkscape:connector-curvature="0"
         style="opacity:0.1" />
      <ellipse
         id="ellipse3763"
         ry="9.2663803"
         rx="41.108391"
         cy="486.49786"
         cx="1018.225"
         style="fill:#fbd56f" />
      <path
         id="path3765"
         d="m 965.64702,469.96779 -3.9066,-2.17524 c 0,0 -1.8273,7.62536 -1.23,13.05926 a 2.707,2.707 0 0 0 2.0343,2.33848 c 8.987,2.23181 51.82038,11.74045 81.27518,-1.65234 a 2.70281,2.70281 0 0 0 1.5655,-2.172 c 0.3612,-3.33959 -0.9178,-10.23077 -1.4283,-11.57336 -1.0987,-2.88956 -78.31008,2.1752 -78.31008,2.1752 z"
         inkscape:connector-curvature="0"
         style="fill:#fbd56f" />
      <path
         id="path3767"
         d="m 965.64702,469.96779 -3.9066,-2.17524 c 0,0 -1.8273,7.62536 -1.23,13.05926 a 2.707,2.707 0 0 0 2.0343,2.33848 c 8.987,2.23181 51.82038,11.74045 81.27518,-1.65234 a 2.70281,2.70281 0 0 0 1.5655,-2.172 c 0.3612,-3.33959 -0.9178,-10.23077 -1.4283,-11.57336 -1.0987,-2.88956 -78.31008,2.1752 -78.31008,2.1752 z"
         inkscape:connector-curvature="0"
         style="opacity:0.1" />
      <ellipse
         id="ellipse3769"
         ry="9.2663803"
         rx="41.108391"
         cy="467.79248"
         cx="1002.8488"
         style="fill:#fbd56f" />
      <path
         id="path3771"
         d="m 1000.2381,454.95655 -3.90668,-2.17528 c 0,0 -1.8272,7.62536 -1.23,13.05926 a 2.707,2.707 0 0 0 2.0343,2.33847 c 8.98698,2.23181 51.82048,11.74046 81.27528,-1.65234 a 2.70276,2.70276 0 0 0 1.5654,-2.172 c 0.3613,-3.33958 -0.9177,-10.23077 -1.4282,-11.57335 -1.0987,-2.88955 -78.3101,2.17524 -78.3101,2.17524 z"
         inkscape:connector-curvature="0"
         style="fill:#fbd56f" />
      <path
         id="path3773"
         d="m 1000.2381,454.95655 -3.90668,-2.17528 c 0,0 -1.8272,7.62536 -1.23,13.05926 a 2.707,2.707 0 0 0 2.0343,2.33847 c 8.98698,2.23181 51.82048,11.74046 81.27528,-1.65234 a 2.70276,2.70276 0 0 0 1.5654,-2.172 c 0.3613,-3.33958 -0.9177,-10.23077 -1.4282,-11.57335 -1.0987,-2.88955 -78.3101,2.17524 -78.3101,2.17524 z"
         inkscape:connector-curvature="0"
         style="opacity:0.1" />
      <ellipse
         id="ellipse3775"
         ry="9.2663803"
         rx="41.108391"
         cy="452.78125"
         cx="1037.4398"
         style="fill:#fbd56f" />
      <path
         id="path3777"
         d="m 976.86682,444.86699 -3.9067,-2.17528 c 0,0 -1.8272,7.62536 -1.23,13.05926 a 2.707,2.707 0 0 0 2.0343,2.33847 c 8.987,2.23181 51.82048,11.74046 81.27528,-1.65234 a 2.70279,2.70279 0 0 0 1.5654,-2.172 c 0.3613,-3.33958 -0.9177,-10.23077 -1.4282,-11.57335 -1.0987,-2.88952 -78.31008,2.17524 -78.31008,2.17524 z"
         inkscape:connector-curvature="0"
         style="fill:#fbd56f" />
      <path
         id="path3779"
         d="m 976.86682,444.86699 -3.9067,-2.17528 c 0,0 -1.8272,7.62536 -1.23,13.05926 a 2.707,2.707 0 0 0 2.0343,2.33847 c 8.987,2.23181 51.82048,11.74046 81.27528,-1.65234 a 2.70279,2.70279 0 0 0 1.5654,-2.172 c 0.3613,-3.33958 -0.9177,-10.23077 -1.4282,-11.57335 -1.0987,-2.88952 -78.31008,2.17524 -78.31008,2.17524 z"
         inkscape:connector-curvature="0"
         style="opacity:0.1" />
      <ellipse
         id="ellipse3781"
         ry="9.2663803"
         rx="41.108391"
         cy="442.69171"
         cx="1014.0685"
         style="fill:#fbd56f" />
      <path
         id="path3783"
         d="m 992.47052,425.38892 -3.9067,-2.17528 c 0,0 -1.8272,7.62536 -1.23,13.05926 a 2.707,2.707 0 0 0 2.0343,2.33847 c 8.987,2.23181 51.82048,11.74046 81.27528,-1.65234 a 2.70278,2.70278 0 0 0 1.5654,-2.172 c 0.3613,-3.33958 -0.9177,-10.23077 -1.4282,-11.57335 -1.0987,-2.88952 -78.31008,2.17524 -78.31008,2.17524 z"
         inkscape:connector-curvature="0"
         style="fill:#fbd56f" />
      <path
         id="path3785"
         d="m 992.47052,425.38892 -3.9067,-2.17528 c 0,0 -1.8272,7.62536 -1.23,13.05926 a 2.707,2.707 0 0 0 2.0343,2.33847 c 8.987,2.23181 51.82048,11.74046 81.27528,-1.65234 a 2.70278,2.70278 0 0 0 1.5654,-2.172 c 0.3613,-3.33958 -0.9177,-10.23077 -1.4282,-11.57335 -1.0987,-2.88952 -78.31008,2.17524 -78.31008,2.17524 z"
         inkscape:connector-curvature="0"
         style="opacity:0.1" />
      <ellipse
         id="ellipse3787"
         ry="9.2663803"
         rx="41.108391"
         cy="423.21362"
         cx="1029.6722"
         style="fill:#fbd56f" />
      <path
         id="path3789"
         d="m 1000.1672,402.26893 -3.90658,-2.17528 c 0,0 -1.8273,7.62536 -1.23,13.05926 a 2.707,2.707 0 0 0 2.0343,2.33847 c 8.98698,2.23181 51.82048,11.74046 81.27518,-1.65234 a 2.70278,2.70278 0 0 0 1.5655,-2.172 c 0.3613,-3.33958 -0.9177,-10.23077 -1.4283,-11.57335 -1.0987,-2.88952 -78.3101,2.17524 -78.3101,2.17524 z"
         inkscape:connector-curvature="0"
         style="fill:#fbd56f" />
      <path
         id="path3791"
         d="m 1000.1672,402.26893 -3.90658,-2.17528 c 0,0 -1.8273,7.62536 -1.23,13.05926 a 2.707,2.707 0 0 0 2.0343,2.33847 c 8.98698,2.23181 51.82048,11.74046 81.27518,-1.65234 a 2.70278,2.70278 0 0 0 1.5655,-2.172 c 0.3613,-3.33958 -0.9177,-10.23077 -1.4283,-11.57335 -1.0987,-2.88952 -78.3101,2.17524 -78.3101,2.17524 z"
         inkscape:connector-curvature="0"
         style="opacity:0.1" />
      <ellipse
         id="ellipse3793"
         ry="9.2663803"
         rx="41.108391"
         cy="400.09363"
         cx="1037.369"
         style="fill:#fbd56f" />
      <path
         id="path3795"
         d="m 1069.5619,525.67579 -3.9066,-2.17528 c 0,0 -1.8273,7.62536 -1.23,13.05926 a 2.707,2.707 0 0 0 2.0343,2.33847 c 8.987,2.23181 51.8204,11.74046 81.2752,-1.65234 a 2.70279,2.70279 0 0 0 1.5655,-2.172 c 0.3612,-3.33958 -0.9178,-10.23077 -1.4283,-11.57335 -1.0986,-2.88952 -78.3101,2.17524 -78.3101,2.17524 z"
         inkscape:connector-curvature="0"
         style="fill:#fbd56f" />
      <path
         id="path3797"
         d="m 1069.5619,525.67579 -3.9066,-2.17528 c 0,0 -1.8273,7.62536 -1.23,13.05926 a 2.707,2.707 0 0 0 2.0343,2.33847 c 8.987,2.23181 51.8204,11.74046 81.2752,-1.65234 a 2.70279,2.70279 0 0 0 1.5655,-2.172 c 0.3612,-3.33958 -0.9178,-10.23077 -1.4283,-11.57335 -1.0986,-2.88952 -78.3101,2.17524 -78.3101,2.17524 z"
         inkscape:connector-curvature="0"
         style="opacity:0.1" />
      <ellipse
         id="ellipse3799"
         ry="9.2663803"
         rx="41.108391"
         cy="523.50049"
         cx="1106.7637"
         style="fill:#fbd56f" />
      <path
         id="path3801"
         d="m 1083.4465,507.707 -3.9066,-2.17529 c 0,0 -1.8273,7.62536 -1.2299,13.05926 a 2.707,2.707 0 0 0 2.0342,2.33848 c 8.987,2.23181 51.8205,11.74045 81.2753,-1.65234 a 2.70278,2.70278 0 0 0 1.5654,-2.172 c 0.3613,-3.33959 -0.9177,-10.23077 -1.4282,-11.57336 -1.0988,-2.88952 -78.3102,2.17525 -78.3102,2.17525 z"
         inkscape:connector-curvature="0"
         style="fill:#fbd56f" />
      <path
         id="path3803"
         d="m 1083.4465,507.707 -3.9066,-2.17529 c 0,0 -1.8273,7.62536 -1.2299,13.05926 a 2.707,2.707 0 0 0 2.0342,2.33848 c 8.987,2.23181 51.8205,11.74045 81.2753,-1.65234 a 2.70278,2.70278 0 0 0 1.5654,-2.172 c 0.3613,-3.33959 -0.9177,-10.23077 -1.4282,-11.57336 -1.0988,-2.88952 -78.3102,2.17525 -78.3102,2.17525 z"
         inkscape:connector-curvature="0"
         style="opacity:0.1" />
      <ellipse
         id="ellipse3805"
         ry="9.2663803"
         rx="41.108391"
         cy="505.53174"
         cx="1120.6483"
         style="fill:#fbd56f" />
      <path
         id="path3807"
         d="m 1068.0703,489.00165 -3.9066,-2.17528 c 0,0 -1.8273,7.62536 -1.23,13.05926 a 2.707,2.707 0 0 0 2.0342,2.33847 c 8.987,2.23181 51.8205,11.74046 81.2753,-1.65234 a 2.70278,2.70278 0 0 0 1.5654,-2.172 c 0.3613,-3.33958 -0.9177,-10.23077 -1.4282,-11.57335 -1.0987,-2.88952 -78.3101,2.17524 -78.3101,2.17524 z"
         inkscape:connector-curvature="0"
         style="fill:#fbd56f" />
      <path
         id="path3809"
         d="m 1068.0703,489.00165 -3.9066,-2.17528 c 0,0 -1.8273,7.62536 -1.23,13.05926 a 2.707,2.707 0 0 0 2.0342,2.33847 c 8.987,2.23181 51.8205,11.74046 81.2753,-1.65234 a 2.70278,2.70278 0 0 0 1.5654,-2.172 c 0.3613,-3.33958 -0.9177,-10.23077 -1.4282,-11.57335 -1.0987,-2.88952 -78.3101,2.17524 -78.3101,2.17524 z"
         inkscape:connector-curvature="0"
         style="opacity:0.1" />
      <ellipse
         id="ellipse3811"
         ry="9.2663803"
         rx="41.108391"
         cy="486.82635"
         cx="1105.2721"
         style="fill:#fbd56f" />
      <path
         id="path3813"
         d="m 1102.6614,473.99038 -3.9067,-2.17528 c 0,0 -1.8272,7.62536 -1.23,13.05926 a 2.707,2.707 0 0 0 2.0343,2.33848 c 8.987,2.23181 51.8205,11.74045 81.2753,-1.65234 a 2.70281,2.70281 0 0 0 1.5654,-2.172 c 0.3613,-3.33959 -0.9177,-10.23077 -1.4282,-11.57336 -1.0987,-2.88952 -78.3101,2.17524 -78.3101,2.17524 z"
         inkscape:connector-curvature="0"
         style="fill:#fbd56f" />
      <path
         id="path3815"
         d="m 1102.6614,473.99038 -3.9067,-2.17528 c 0,0 -1.8272,7.62536 -1.23,13.05926 a 2.707,2.707 0 0 0 2.0343,2.33848 c 8.987,2.23181 51.8205,11.74045 81.2753,-1.65234 a 2.70281,2.70281 0 0 0 1.5654,-2.172 c 0.3613,-3.33959 -0.9177,-10.23077 -1.4282,-11.57336 -1.0987,-2.88952 -78.3101,2.17524 -78.3101,2.17524 z"
         inkscape:connector-curvature="0"
         style="opacity:0.1" />
      <ellipse
         id="ellipse3817"
         ry="9.2663803"
         rx="41.108391"
         cy="471.81512"
         cx="1139.8632"
         style="fill:#fbd56f" />
      <path
         id="path3819"
         d="m 1079.2901,463.90084 -3.9067,-2.17528 c 0,0 -1.8272,7.62536 -1.23,13.05926 a 2.707,2.707 0 0 0 2.0343,2.33848 c 8.987,2.23181 51.8205,11.74045 81.2753,-1.65234 a 2.70281,2.70281 0 0 0 1.5654,-2.172 c 0.3613,-3.33959 -0.9177,-10.23077 -1.4282,-11.57336 -1.0987,-2.88952 -78.3101,2.17524 -78.3101,2.17524 z"
         inkscape:connector-curvature="0"
         style="fill:#fbd56f" />
      <path
         id="path3821"
         d="m 1079.2901,463.90084 -3.9067,-2.17528 c 0,0 -1.8272,7.62536 -1.23,13.05926 a 2.707,2.707 0 0 0 2.0343,2.33848 c 8.987,2.23181 51.8205,11.74045 81.2753,-1.65234 a 2.70281,2.70281 0 0 0 1.5654,-2.172 c 0.3613,-3.33959 -0.9177,-10.23077 -1.4282,-11.57336 -1.0987,-2.88952 -78.3101,2.17524 -78.3101,2.17524 z"
         inkscape:connector-curvature="0"
         style="opacity:0.1" />
      <ellipse
         id="ellipse3823"
         ry="9.2663803"
         rx="41.108391"
         cy="461.72552"
         cx="1116.4918"
         style="fill:#fbd56f" />
      <path
         id="path3825"
         d="m 1094.8938,444.42278 -3.9066,-2.17529 c 0,0 -1.8273,7.62537 -1.23,13.05927 a 2.707,2.707 0 0 0 2.0342,2.33847 c 8.987,2.23181 51.8205,11.74045 81.2753,-1.65234 a 2.70281,2.70281 0 0 0 1.5654,-2.172 c 0.3613,-3.33958 -0.9177,-10.23077 -1.4282,-11.57336 -1.0987,-2.88952 -78.3101,2.17525 -78.3101,2.17525 z"
         inkscape:connector-curvature="0"
         style="fill:#fbd56f" />
      <path
         id="path3827"
         d="m 1094.8938,444.42278 -3.9066,-2.17529 c 0,0 -1.8273,7.62537 -1.23,13.05927 a 2.707,2.707 0 0 0 2.0342,2.33847 c 8.987,2.23181 51.8205,11.74045 81.2753,-1.65234 a 2.70281,2.70281 0 0 0 1.5654,-2.172 c 0.3613,-3.33958 -0.9177,-10.23077 -1.4282,-11.57336 -1.0987,-2.88952 -78.3101,2.17525 -78.3101,2.17525 z"
         inkscape:connector-curvature="0"
         style="opacity:0.1" />
      <ellipse
         id="ellipse3829"
         ry="9.2663803"
         rx="41.108391"
         cy="442.2475"
         cx="1132.0956"
         style="fill:#fbd56f" />
      <path
         id="path3831"
         d="m 1102.5905,421.30279 -3.9066,-2.17528 c 0,0 -1.8273,7.62536 -1.23,13.05926 a 2.707,2.707 0 0 0 2.0343,2.33847 c 8.987,2.23181 51.8205,11.74046 81.2752,-1.65234 a 2.70279,2.70279 0 0 0 1.5655,-2.172 c 0.3613,-3.33958 -0.9177,-10.23077 -1.4282,-11.57335 -1.0987,-2.88952 -78.3102,2.17524 -78.3102,2.17524 z"
         inkscape:connector-curvature="0"
         style="fill:#fbd56f" />
      <path
         id="path3833"
         d="m 1102.5905,421.30279 -3.9066,-2.17528 c 0,0 -1.8273,7.62536 -1.23,13.05926 a 2.707,2.707 0 0 0 2.0343,2.33847 c 8.987,2.23181 51.8205,11.74046 81.2752,-1.65234 a 2.70279,2.70279 0 0 0 1.5655,-2.172 c 0.3613,-3.33958 -0.9177,-10.23077 -1.4282,-11.57335 -1.0987,-2.88952 -78.3102,2.17524 -78.3102,2.17524 z"
         inkscape:connector-curvature="0"
         style="opacity:0.1" />
      <ellipse
         id="ellipse3835"
         ry="9.2663803"
         rx="41.108391"
         cy="419.1275"
         cx="1139.7924"
         style="fill:#fbd56f" />
      <path
         id="path3837"
         d="m 1350.3676,580.21355 c -5.7223,-0.2017 -5.9267,-2.42 -13.2837,-6.25148 -4.1527,-2.16183 -10.4593,-8.44156 -15.1598,-13.49521 q -0.5646,-0.60741 -1.0936,-1.186 c 1.2429,-0.0272 1.9479,-0.0401 1.9479,-0.0401 0,0 -1.8392,-16.13283 -0.2044,-19.9644 1.6349,-3.83157 0.4088,-26.61921 0.4088,-26.61921 0,0 1.0218,-17.34285 -0.8176,-21.37606 -1.8393,-4.03321 0.6132,-29.84586 0.6132,-29.84586 0,0 1.6348,-15.32622 2.0436,-46.58362 0.4089,-31.2574 -17.984,-32.26578 -17.984,-32.26578 0,0 -2.4523,-0.18957 -6.1757,-0.54447 -0.3576,-0.0338 -0.7358,-0.0705 -1.1158,-0.10734 2.4114,-5.048 3.8174,-8.82626 3.8174,-8.82626 0,0 -3.0654,-29.24082 -3.883,-34.28235 -0.8174,-5.04146 -5.7221,-25.81254 -5.7221,-25.81254 0,0 -3.4743,-8.87309 -5.5178,-15.12457 -2.0435,-6.25148 -8.1745,-13.51128 -8.1745,-13.51128 0,0 -11.0357,-21.77939 -14.1012,-25.006 -1.4223,-1.49635 -3.4169,-3.38385 -5.1458,-4.977 -0.3118,-0.28744 -0.6097,-0.56017 -0.8992,-0.82434 a 36.518,36.518 0 0 0 0.7315,-6.9033 c 0,0 -11.4443,-11.293 -12.2617,-14.11625 -0.8174,-2.82325 -11.6487,-13.30961 -11.6487,-13.30961 0,0 -6.131,-11.293 -13.0793,-11.49471 a 56.68235,56.68235 0 0 0 -9.8416,0.29834 c 1.4267,-5.28206 3.1145,-10.81544 4.6303,-15.564 0.1688,-0.52921 0.3344,-1.04507 0.4983,-1.55335 a 34.99737,34.99737 0 0 0 12.5543,-15.18478 c 0.145,-0.32757 0.2759,-0.65846 0.4073,-0.98942 0.074,0.002 0.1466,0.0138 0.2202,0.0129 a 5.48659,5.48659 0 0 0 0.8597,-0.0779 c 2.2875,-0.39287 4.2236,-2.976 3.1689,-5.01456 a 0.74746,0.74746 0 0 0 0.6665,0.36622 c 0.7623,-0.0254 1.6926,-1.12828 1.8712,-2.09862 0.031,-0.16828 0.048,-0.33859 0.074,-0.5076 0.032,-0.21057 0.067,-0.4207 0.092,-0.63225 0.024,-0.19881 0.038,-0.39811 0.055,-0.59759 0.017,-0.20576 0.034,-0.41134 0.044,-0.6176 0.01,-0.193 0.016,-0.38573 0.019,-0.579 0,-0.2222 0,-0.44415 -10e-4,-0.66634 0,-0.17788 0,-0.35546 -0.014,-0.53315 -0.013,-0.27033 -0.035,-0.53986 -0.06,-0.80939 -0.01,-0.1106 -0.012,-0.22189 -0.025,-0.33231 v 0.0159 a 18.109,18.109 0 0 0 -0.6584,-3.25213 c -1.1294,-3.74841 -3.4985,-7.46575 -2.5856,-11.27115 0.01,-0.041 0.028,-0.0784 0.039,-0.119 v 0.007 c 0.7607,-2.95312 3.3161,-5.09864 4.8798,-7.73712 0.149,-0.25168 0.28,-0.51136 0.4091,-0.77171 0.024,-0.0476 0.052,-0.0933 0.075,-0.14126 0.094,-0.19616 0.1737,-0.39768 0.2565,-0.59809 0.053,-0.12882 0.1119,-0.25568 0.1607,-0.3861 0.066,-0.17579 0.1203,-0.3549 0.1778,-0.53334 0.053,-0.16243 0.1076,-0.324 0.1535,-0.4884 0.044,-0.15812 0.079,-0.31809 0.1173,-0.47781 0.046,-0.19241 0.091,-0.38457 0.128,-0.57894 0.027,-0.13935 0.047,-0.2795 0.069,-0.41972 0.034,-0.22035 0.066,-0.44082 0.089,-0.66283 0.013,-0.12021 0.022,-0.24048 0.031,-0.36112 0.02,-0.24761 0.033,-0.49523 0.039,-0.744 0,-0.0996 0,-0.199 0,-0.2987 q 10e-4,-0.40772 -0.021,-0.81529 c 0,-0.0817 -0.01,-0.163 -0.015,-0.24467 -0.02,-0.28965 -0.051,-0.57826 -0.089,-0.86663 -0.01,-0.0417 -0.01,-0.0836 -0.013,-0.12531 v 0.0114 a 14.53163,14.53163 0 0 0 -2.927,-6.95063 17.91132,17.91132 0 0 0 -14.7101,-6.36234 24.64481,24.64481 0 0 1 -4.6251,0.0851 c -2.5657,-0.376 -4.7355,-2.00574 -6.7803,-3.58069 q -8.5587,-6.59278 -17.1177,-13.18556 a 21.123,21.123 0 0 0 -6.4705,-3.846707 c -2.419,-0.74032 -5.319,-0.48489 -7.1096,1.28241 -3.2048,3.162877 -1.1677,8.605837 -2.4544,12.894477 -1.1145,3.71456 -4.702,6.23184 -8.4162,7.48655 -3.7142,1.25471 -7.6884,1.53008 -11.5049,2.43837 a 6.34988,6.34988 0 0 0 -3.0786,1.41461 5.95545,5.95545 0 0 0 -1.3377,4.28741 23.1183,23.1183 0 0 0 2.6573,10.90512 c 0.7217,1.36955 1.5958,2.7532 2.3636,4.15649 0.063,0.1159 0.125,0.23211 0.1866,0.34825 0.086,0.161 0.1719,0.322 0.2538,0.48366 q 0.1993,0.39323 0.3798,0.78871 c 0.052,0.11387 0.098,0.22829 0.1476,0.3424 q 0.1205,0.28012 0.2288,0.56128 c 0.046,0.11941 0.09,0.23888 0.1322,0.35859 0.077,0.22066 0.146,0.442 0.2088,0.66376 a 7.38075,7.38075 0 0 1 0.111,4.02108 c -0.5885,2.16762 -2.2809,3.8376 -3.7732,5.5311 a 10.759,10.759 0 0 0 -2.5216,4.6745 l -0.01,0.0387 a 3.75722,3.75722 0 0 0 -0.046,1.2328 c 0.01,0.0511 0.014,0.10278 0.024,0.152 a 2.15891,2.15891 0 0 0 0.075,0.27 1.87035,1.87035 0 0 0 0.08,0.18779 1.7407,1.7407 0 0 0 0.1063,0.20878 1.60072,1.60072 0 0 0 0.2598,0.30652 1.68959,1.68959 0 0 0 0.1433,0.10655 1.73817,1.73817 0 0 0 0.2624,0.161 c 0.056,0.0276 0.1132,0.0539 0.1746,0.0771 a 2.42158,2.42158 0 0 0 0.4187,0.11424 c 0.04,0.007 0.074,0.0201 0.116,0.026 a 3.83834,3.83834 0 0 0 0.6576,0.0279 c 0.063,-0.002 0.1324,-0.01 0.1987,-0.0147 a 6.24239,6.24239 0 0 0 0.6277,-0.0794 c 0.076,-0.0134 0.1509,-0.0254 0.2304,-0.0419 0.3013,-0.0621 0.6171,-0.13861 0.9645,-0.24669 a 21.62464,21.62464 0 0 0 3.3388,-1.32 c -10e-4,0.12286 -0.01,0.24405 -0.01,0.36715 0,0.21179 0,0.43362 0.021,0.64542 a 33.98647,33.98647 0 0 0 2.2074,11.56684 34.93447,34.93447 0 0 0 10.6572,14.72511 q -0.089,0.52256 -0.1949,1.04918 c -0.9851,4.83589 -3.0451,9.68784 -4.3162,9.31275 a 17.33266,17.33266 0 0 0 -3.7889,-0.41546 c -0.3859,-0.0115 -0.7597,-0.0166 -1.1147,-0.0188 l -10e-4,-10e-4 a 15.11015,15.11015 0 0 0 -3.474,0 3.76531,3.76531 0 0 1 -1.5204,-0.2097 20.72951,20.72951 0 0 0 -10.2101,-0.57279 c -7.0668,1.448 -17.8163,4.09777 -20.7633,7.26786 -4.496,4.83989 -11.0356,9.47807 -18.3927,29.64417 0,0 -3.6785,12.30132 -6.5397,13.91461 a 19.09761,19.09761 0 0 1 1.9415,-0.87266 5.178,5.178 0 0 1 -1.5327,1.67928 22.55366,22.55366 0 0 1 3.2186,-1.34216 c -2.2333,13.13871 1.073,50.72157 1.073,50.72157 0,0 -2.6567,6.4807 0.8175,10.3122 2.0647,2.27718 3.1865,5.82783 3.7606,8.34093 q -0.2421,0.37761 -0.5031,0.78224 v 0.004 c -1.8392,2.85144 -4.2998,6.57006 -5.9142,8.619 -2.8611,3.62987 -2.0437,15.12457 -2.0437,15.12457 0,0 -0.6131,5.44486 -2.6566,7.46144 -2.0436,2.01658 -1.635,9.47807 -1.635,9.47807 l -5.3134,19.56112 c 0,0 -4.9048,4.43654 -4.9048,6.45311 0,2.01657 -3.8829,7.66314 -3.8829,7.66314 0,0 -5.9266,9.67971 0,8.26812 a 18.59535,18.59535 0 0 0 5.9837,-3.00877 v 0.14489 q -0.013,0.53208 -0.022,1.08113 c -0.1676,10.54283 0.9809,25.37707 8.7548,25.37707 12.0575,0 43.1207,14.3179 43.1207,14.3179 6.3354,4.83988 14.9187,3.22659 14.9187,3.22659 0,0 -15.123,15.12457 -14.7143,21.376 0.4087,6.25143 -8.5832,16.53617 -8.5832,16.53617 l -27.7935,54.24681 a 41.60631,41.60631 0 0 0 1.9922,11.11881 c -0.132,0.11529 -0.269,0.2254 -0.3982,0.34358 -10.6798,9.75634 -11.6077,29.07144 -11.6077,29.07144 l -2.4524,9.88135 37.1942,16.33442 c 0,0 48.2297,1.00831 56.6087,-1.21 8.379,-2.21831 6.5397,-11.49464 -4.496,-13.30964 -11.0357,-1.815 -13.6924,-6.65476 -17.3709,-8.873 -2.481,-1.49635 -11.2931,-11.168 -16.7618,-17.29847 -0.084,-0.0938 -0.1592,-0.17892 -0.2413,-0.27107 l 1.2671,-7.0331 c 2.4523,-1.21 6.1309,-13.30964 6.1309,-13.30964 0,0 0,-4.83983 2.4523,-6.25148 2.4523,-1.41165 7.5615,-15.93119 7.5615,-15.93119 0,0 11.0357,-18.35116 10.4225,-20.77108 -0.6131,-2.41992 7.9703,-14.72123 7.9703,-14.72123 0,0 14.5097,-14.11624 13.8967,-16.63704 -0.613,-2.5208 11.6487,-15.427 11.6487,-15.427 a 40.92327,40.92327 0 0 0 10.8516,-12.495 c 1.1036,-0.17745 2.2888,-0.367 3.5396,-0.57672 16.0466,-2.62962 42.712,-7.38481 45.6915,-8.70771 4.0874,-1.81493 3.27,6.25148 1.635,13.10794 -1.6349,6.85646 -2.861,39.72721 -1.0218,43.96206 1.8392,4.23485 1.0218,11.09136 1.0218,11.09136 l -2.4523,36.904 1.6348,7.86477 c 0,0 -5.5178,4.43655 -3.2698,7.0581 2.248,2.62155 0.2044,13.91462 0.2044,13.91462 0.1931,-0.0715 0.4219,-0.14132 0.6787,-0.21 -0.1968,0.44273 -0.3841,0.89759 -0.552,1.37565 -3.1676,9.03035 -1.3528,23.84034 -1.3528,23.84034 v 11.69628 c 0,0 56.6086,1.00832 69.0748,1.00832 12.4662,0 29.6327,-6.04984 30.6546,-10.88967 1.0218,-4.83983 -14.3056,-8.87312 -20.0276,-9.07474 z m -161.0066,-209.93821 -3.7086,0.31194 a 30.78883,30.78883 0 0 1 3.7086,-0.31194 z m 22.608,-154.78831 c 0.5192,-2.33282 1.1494,-4.842 1.8442,-7.41565 z m 6.9927,160.444 a 15.00237,15.00237 0 0 1 -11.0111,0.0121 l -0.025,-0.0121 c 0,0 0.2044,-14.11625 1.8394,-19.96439 1.6349,-5.84814 3.883,-16.53617 3.883,-16.53617 0,0 1.8391,-14.72129 3.6783,-21.37605 1.8392,-6.65476 8.992,-43.76042 12.6707,-46.1804 3.6786,-2.41998 5.722,1.815 5.722,1.815 0,0 0.5497,-0.0112 1.4706,-0.11326 q 0.2592,0.58028 0.5855,1.23446 c 4.3611,8.81259 17.1543,26.90967 17.1543,26.90967 a 29.46706,29.46706 0 0 1 9.4006,9.27637 c 3.4742,5.84814 4.496,19.56112 4.496,19.56112 0,0 7.7658,30.45078 11.4444,34.68563 1.8393,2.11745 1.0217,3.37985 -0.2535,4.1099 a 18.10626,18.10626 0 0 0 -6.4496,5.957 c -0.5236,0.83062 -1.0778,1.7431 -1.6402,2.71523 -1.4062,-0.32572 -2.6653,-0.66382 -3.7142,-1.01724 -10.0139,-3.36373 -43.7338,-3.4968 -49.2516,-1.07689 z"
         inkscape:connector-curvature="0"
         style="fill:url(#b604d933-963c-47a0-8899-51e94ba39cbc)" />
      <path
         id="path3839"
         d="m 1269.3249,587.59166 v 11.59844 c 0,0 55.3925,0.99987 67.5908,0.99987 12.1984,0 28.9962,-5.9992 29.9961,-10.79855 0.9999,-4.79935 -13.9981,-8.79881 -19.5974,-8.99879 -5.5993,-0.19998 -5.7992,-2.39967 -12.9983,-6.19916 -4.0634,-2.14371 -10.2346,-8.37087 -14.834,-13.38221 -3.5474,-3.86747 -6.1631,-7.015 -6.1631,-7.015 0,0 -29.796,-0.59992 -38.3948,4.19943 -1.9797,1.10784 -3.3476,3.27556 -4.2754,5.95521 -3.0997,8.95473 -1.3239,23.64076 -1.3239,23.64076 z"
         inkscape:connector-curvature="0"
         style="fill:#434175" />
      <path
         id="path3841"
         d="m 1270.6487,563.95086 c 6.2471,-2.17173 42.8222,-3.01561 48.8334,-3.1396 -3.5475,-3.86747 -6.1632,-7.015 -6.1632,-7.015 0,0 -29.796,-0.59992 -38.3948,4.19943 -1.9797,1.1078 -3.3476,3.27552 -4.2754,5.95517 z"
         inkscape:connector-curvature="0"
         style="opacity:0.1" />
      <path
         id="path3843"
         d="m 1109.9464,379.01977 c 0,0 1.1558,0.6999 3.2316,1.95174 0.3759,0.224 0.7798,0.47193 1.2118,0.73188 1.3158,0.79591 2.8956,1.74378 4.6993,2.83163 25.1326,15.14595 93.6914,56.20443 97.4429,55.87648 0.9839,-0.084 3.9395,-0.52794 8.0189,-1.19186 1.0799,-0.176 2.2397,-0.36394 3.4635,-0.57192 15.7019,-2.60763 41.7944,-7.323 44.71,-8.63482 3.9995,-1.79976 3.1996,6.19916 1.5998,12.99825 -1.5998,6.79909 -2.7996,39.39469 -0.9998,43.59412 1.7997,4.19943 0.9998,10.99852 0.9998,10.99852 l -2.3996,36.59507 1.5997,7.799 c 0,0 -5.3992,4.3994 -3.1995,6.999 2.1997,2.5996 0.2,13.79814 0.2,13.79814 6.3991,-2.39967 49.7933,-3.19956 49.7933,-3.19956 0,0 -1.7998,-15.99785 -0.2,-19.79734 1.5997,-3.79949 0.3999,-26.39644 0.3999,-26.39644 0,0 0.9999,-17.19768 -0.7999,-21.19714 -1.7997,-3.99946 0.5999,-29.596 0.5999,-29.596 0,0 1.5998,-15.19795 1.9998,-46.19377 0.3999,-30.99582 -17.5977,-31.99569 -17.5977,-31.99569 0,0 -2.3996,-0.188 -6.0431,-0.53994 -7.127,-0.68389 -19.0055,-1.99173 -26.9404,-3.71549 a 44.89987,44.89987 0 0 1 -4.8114,-1.27583 c -9.7987,-3.33556 -42.7942,-3.46753 -48.1935,-1.06785 a 14.50073,14.50073 0 0 1 -10.7745,0.012 l -0.024,-0.012 -4.1994,-6.79908 -40.1107,3.41953 -4.2513,0.36394 -39.4868,3.36756 -2.7156,0.23195 z"
         inkscape:connector-curvature="0"
         style="fill:#565387" />
      <path
         id="path3845"
         d="m 1270.7247,409.69564 c 11.6504,5.67921 22.7689,-14.45406 27.9522,-25.81654 -7.127,-0.68389 -19.0054,-1.99173 -26.9404,-3.71549 -5.2193,8.75883 -12.1823,24.08874 -1.0118,29.53203 z"
         inkscape:connector-curvature="0"
         style="opacity:0.1" />
      <path
         id="path3847"
         d="m 1235.7294,273.63397 a 12.214,12.214 0 0 0 1.4118,3.91146 c 4.2674,8.73884 16.7857,26.68442 16.7857,26.68442 a 28.991,28.991 0 0 1 9.1988,9.19876 c 3.3995,5.79921 4.3994,19.39738 4.3994,19.39738 0,0 7.599,30.19593 11.1985,34.39537 1.7997,2.09971 0.9998,3.35155 -0.248,4.07545 a 17.81172,17.81172 0 0 0 -6.3112,5.90719 c -5.2433,8.43087 -13.6141,25.15261 -1.8397,30.89185 15.9978,7.79895 30.9958,-33.07554 30.9958,-33.07554 0,0 -2.9996,-28.9961 -3.7995,-33.99542 -0.7999,-4.99932 -5.5992,-25.59655 -5.5992,-25.59655 0,0 -3.3996,-8.79882 -5.3993,-14.998 -1.9997,-6.19918 -7.9989,-13.3982 -7.9989,-13.3982 0,0 -10.7985,-21.59707 -13.7981,-24.79659 -1.3918,-1.48381 -3.3436,-3.35555 -5.0354,-4.93534 -1.9557,-1.82776 -3.5635,-3.26355 -3.5635,-3.26355 0,0 -20.5972,14.79795 -20.3972,19.59731 z"
         inkscape:connector-curvature="0"
         style="fill:#ee8e9e" />
      <path
         id="path3849"
         d="m 1100.1476,585.19199 36.3951,16.19781 c 0,0 47.1937,0.99987 55.3926,-1.19983 8.1989,-2.1997 6.3991,-11.39847 -4.3994,-13.19823 -10.7986,-1.79976 -13.3982,-6.59911 -16.9977,-8.79881 -2.4277,-1.48381 -11.0506,-11.07451 -16.4018,-17.15369 -2.5757,-2.92761 -4.3954,-5.04332 -4.3954,-5.04332 0,0 -6.9991,-18.59749 -26.3965,-14.39806 a 19.876,19.876 0 0 0 -9.4387,4.96732 c -10.4506,9.6747 -11.3585,28.82813 -11.3585,28.82813 z"
         inkscape:connector-curvature="0"
         style="fill:#434175" />
      <path
         id="path3851"
         d="m 1114.3897,381.70339 c 1.3159,0.79591 2.8956,1.74378 4.6994,2.83163 25.1326,15.14595 93.6914,56.20443 97.4429,55.87648 0.9838,-0.084 3.9394,-0.52794 8.0189,-1.19186 1.0798,-0.176 2.2397,-0.36394 3.4635,-0.57192 0.048,-0.076 0.092,-0.152 0.136,-0.228 a 45.96453,45.96453 0 0 0 4.5794,-11.20648 c 4.1994,-15.99784 -16.5978,-28.1962 -16.5978,-28.1962 l -4.3994,-3.41953 c -4.9993,-8.41889 -40.9945,-16.3778 -40.9945,-16.3778 l -4.6393,-3.1156 -2.4757,-1.66376 -0.6519,-0.43595 -5.6313,-3.78348 -28.1962,1.99973 -8.3748,5.38326 -0.8839,0.56794 -3.1076,1.99973 z"
         inkscape:connector-curvature="0"
         style="opacity:0.1" />
      <path
         id="path3853"
         d="m 1113.9058,546.56518 c 7.655,26.47644 39.6347,17.82961 39.6347,17.82961 l 0.5959,-3.35555 c -2.5757,-2.92761 -4.3954,-5.04332 -4.3954,-5.04332 0,0 -6.9991,-18.59749 -26.3965,-14.39806 a 19.876,19.876 0 0 0 -9.4387,4.96732 z"
         inkscape:connector-curvature="0"
         style="opacity:0.1" />
      <path
         id="path3855"
         d="m 1105.5469,426.41338 c 11.7984,0 42.1943,14.19809 42.1943,14.19809 6.1992,4.79935 14.598,3.19957 14.598,3.19957 0,0 -14.798,14.998 -14.398,21.19714 0.3999,6.19914 -8.3989,16.39779 -8.3989,16.39779 l -27.1963,53.79275 c 1.9997,38.19486 41.1944,27.59628 41.1944,27.59628 l 1.5998,-8.99878 c 2.3997,-1.19984 5.9992,-13.19822 5.9992,-13.19822 0,0 0,-4.79936 2.3997,-6.19917 2.3997,-1.39981 7.399,-15.79787 7.399,-15.79787 0,0 10.7985,-18.19755 10.1986,-20.59722 -0.5999,-2.39967 7.799,-14.598 7.799,-14.598 0,0 14.198,-13.99811 13.5981,-16.49777 -0.5999,-2.49966 11.3986,-15.29798 11.3986,-15.29798 a 40.38128,40.38128 0 0 0 10.6186,-12.39035 45.96461,45.96461 0 0 0 4.5793,-11.20647 c 3.3835,-12.88228 -9.4467,-23.30487 -14.57,-26.86838 -1.2399,-0.8639 -2.0277,-1.32782 -2.0277,-1.32782 l -4.3994,-3.41954 c -2.2717,-3.83149 -10.9586,-7.563 -19.7534,-10.49461 -6.3431,-2.1157 -12.7463,-3.81547 -16.8377,-4.83533 -2.7077,-0.67191 -4.4034,-1.04786 -4.4034,-1.04786 l -4.6394,-3.11559 -1.6317,-1.09585 -1.4958,-1.00387 -5.6313,-3.78347 -12.5463,0.88786 -15.65,1.11184 -8.3748,5.38325 -3.9915,2.56768 -15.6299,10.04667 c 0,0 -0.412,3.84748 -0.5439,9.01077 -0.01,0.39995 -0.016,0.8039 -0.024,1.21983 -0.164,10.4546 0.9598,25.16463 8.5668,25.16463 z"
         inkscape:connector-curvature="0"
         style="fill:#565387" />
      <path
         id="path3857"
         d="m 1165.7388,202.44355 4.1994,14.998 c 0,0 7.399,25.79652 8.1989,27.59628 0.7999,1.79976 20.1973,19.99731 20.9972,20.39725 0.7999,0.39994 11.3624,6.39914 11.3624,6.39914 0,0 0.836,-32.99555 0.036,-42.59426 a 27.40535,27.40535 0 0 1 0.52,-6.28714 c 1.2758,-7.523 4.5034,-18.55351 7.179,-27.04836 2.2397,-7.11906 4.0994,-12.45833 4.0994,-12.45833 0,0 -46.7937,-1.99973 -45.1939,2.59965 0.604,1.73976 0.408,4.64737 -0.176,7.563 -0.9638,4.79537 -2.9796,9.60671 -4.2234,9.23477 a 16.74457,16.74457 0 0 0 -3.7075,-0.412 c -1.7277,-0.052 -3.2915,0.012 -3.2915,0.012 z"
         inkscape:connector-curvature="0"
         style="fill:#ee8e9e" />
      <path
         id="path3859"
         d="m 1176.9614,193.60874 a 34.60953,34.60953 0 0 0 41.2704,2.29571 c 2.2397,-7.11906 4.0994,-12.45833 4.0994,-12.45833 0,0 -46.7937,-1.99973 -45.1939,2.59965 0.6039,1.73978 0.4079,4.64737 -0.1759,7.56297 z"
         inkscape:connector-curvature="0"
         style="opacity:0.1" />
      <path
         id="path3861"
         d="m 1233.7339,165.85639 a 34.46269,34.46269 0 0 1 -1.73,10.8 28.26947,28.26947 0 0 1 -1,2.65 34.59827,34.59827 0 0 1 -64.28,-1.34 34.09973,34.09973 0 0 1 -2.16,-11.47 c -0.02,-0.21 -0.02,-0.43 -0.02,-0.64 a 34.595035,34.595035 0 1 1 69.19,0 z"
         inkscape:connector-curvature="0"
         style="fill:#ee8e9e" />
      <path
         id="path3863"
         d="m 1165.7388,202.44355 4.1994,14.998 c 0,0 7.399,25.79652 8.1989,27.59628 0.7999,1.79976 20.1973,19.99731 20.9972,20.39725 0.7999,0.39994 11.3624,6.39914 11.3624,6.39914 0,0 0.836,-32.99555 0.036,-42.59426 a 27.40535,27.40535 0 0 1 0.52,-6.28714 l -2.7197,11.08649 0.2,22.197 1.5998,1.19984 -3.5995,5.39927 v -3.99946 c 0,0 -12.7983,-12.39833 -14.798,-17.59763 -1.9997,-5.1993 -9.1988,-14.614 -9.1988,-14.614 0,0 -8.1989,-13.78215 -8.3988,-16.18183 -0.156,-1.87174 -3.5995,-6.19916 -5.1073,-8.01093 -1.7278,-0.052 -3.2916,0.012 -3.2916,0.012 z"
         inkscape:connector-curvature="0"
         style="opacity:0.1" />
      <path
         id="path3865"
         d="m 1235.7294,273.63397 a 12.214,12.214 0 0 0 1.4118,3.91146 c 4.3714,-0.44794 19.2694,-3.22757 22.5489,-20.24527 -1.9557,-1.82776 -3.5635,-3.26355 -3.5635,-3.26355 0,0 -20.5972,14.798 -20.3972,19.59736 z"
         inkscape:connector-curvature="0"
         style="opacity:0.1" />
      <path
         id="path3867"
         d="m 1096.9801,401.24875 c 4.0354,-2.85559 7.8749,-6.75106 10.1666,-7.83092 3.3995,-1.59979 8.5988,-6.79909 8.5988,-6.79909 0,0 1.3199,-0.89587 3.3436,-2.08372 3.7115,-2.17571 9.7947,-5.32729 14.454,-5.71523 4.1755,-0.34795 18.0456,-1.23584 28.9562,-1.91575 7.8949,-0.49593 14.238,-0.88387 14.238,-0.88387 0,0 12.9983,-4.59938 18.5975,-1.59978 a 58.76014,58.76014 0 0 0 12.5983,4.59938 c 0,0 0,-0.43595 0.024,-1.18786 l -0.024,-0.012 -4.1994,-6.79908 -44.362,3.78347 -5.6313,-3.78347 -28.1962,1.99973 -8.3748,5.38325 -7.2231,0.61594 c 0,0 1.1559,0.6999 3.2316,1.95174 l -15.6299,10.04666 c 0,0 -0.4799,4.4674 -0.5679,10.2306 z"
         inkscape:connector-curvature="0"
         style="opacity:0.1" />
      <path
         id="path3869"
         d="m 1091.1489,403.01655 a 18.10327,18.10327 0 0 0 5.8552,-2.9836 v -0.004 c 4.0274,-2.85161 7.855,-6.73507 10.1426,-7.81093 3.3995,-1.59979 8.5988,-6.79908 8.5988,-6.79908 0,0 10.5986,-7.199 17.7976,-7.79895 1.9637,-0.164 6.0672,-0.44794 10.9986,-0.76792 5.0473,-0.33594 10.9545,-0.71189 16.3258,-1.04385 3.0956,-0.196 6.0111,-0.38 8.4748,-0.53191 4.4154,-0.272 7.395,-0.456 7.395,-0.456 0,0 12.9983,-4.59938 18.5975,-1.59978 a 58.76014,58.76014 0 0 0 12.5983,4.59938 c 0,0 0.2,-13.99811 1.7998,-19.79733 1.5997,-5.79922 3.7995,-16.39779 3.7995,-16.39779 0,0 1.7997,-14.598 3.5995,-21.19715 1.7997,-6.59915 8.7988,-43.39415 12.3983,-45.79383 3.5995,-2.39968 5.5993,1.79976 5.5993,1.79976 0,0 23.9967,-0.4 24.3967,-26.79639 0,0 -11.1985,-11.19849 -11.9984,-13.99811 -0.7999,-2.79962 -11.3984,-13.1982 -11.3984,-13.1982 0,0 -5.9992,-11.1985 -12.7983,-11.39847 a 54.7025,54.7025 0 0 0 -9.6307,0.296 l -5.7672,23.50084 0.2,22.197 1.5998,1.19984 -3.5996,5.39927 v -3.9995 c 0,0 -12.7982,-12.39833 -14.798,-17.59762 -1.9997,-5.19929 -9.1987,-14.614 -9.1987,-14.614 0,0 -8.1989,-13.78215 -8.3989,-16.18183 -0.2,-2.39968 -5.7992,-8.83081 -5.7992,-8.83081 a 14.59526,14.59526 0 0 0 -3.3995,0 3.63848,3.63848 0 0 1 -1.4878,-0.208 20.02651,20.02651 0 0 0 -9.9907,-0.56794 c -6.9151,1.43582 -17.4337,4.06347 -20.3173,7.207 -4.3994,4.79935 -10.7985,9.39873 -17.9975,29.396 l 38.7947,13.99811 -3.3195,6.31114 -30.8759,58.6801 c 0,0 -1.0238,1.66777 -2.4116,3.84748 v 0.004 c -1.7998,2.82762 -4.2075,6.51511 -5.7873,8.54684 -2.7996,3.59952 -1.9997,14.998 -1.9997,14.998 0,0 -0.5999,5.39927 -2.5996,7.399 -1.9998,1.99973 -1.5998,9.39873 -1.5998,9.39873 l -5.1994,19.3975 c 0,0 -4.7994,4.3994 -4.7994,6.39913 0,1.99973 -3.7994,7.599 -3.7994,7.599 0,0 -5.7993,9.59867 0,8.19887 z"
         inkscape:connector-curvature="0"
         style="fill:#434175" />
      <path
         id="path3871"
         d="m 1295.9213,417.41455 c 0,0 -12.5983,4.19944 -15.9979,10.19863 -3.3995,5.99919 15.9979,-10.19863 15.9979,-10.19863 z"
         inkscape:connector-curvature="0"
         style="opacity:0.1" />
      <path
         id="path3873"
         d="m 1289.5221,404.21637 c -0.3999,0.59992 -17.2551,17.51311 -16.1978,21.59709 1.0573,4.08398 16.1978,-21.59709 16.1978,-21.59709 z"
         inkscape:connector-curvature="0"
         style="opacity:0.1" />
      <path
         id="path3875"
         d="m 1196.9346,416.21476 c 0,0 -18.7975,8.86479 -20.3972,12.73129 -1.5998,3.8665 20.3972,-12.73129 20.3972,-12.73129 z"
         inkscape:connector-curvature="0"
         style="opacity:0.1" />
      <path
         id="path3877"
         d="m 1195.7348,427.61322 c 0,0 -16.9642,7.199 -19.2807,8.99879 -2.3164,1.79979 19.2807,-8.99879 19.2807,-8.99879 z"
         inkscape:connector-curvature="0"
         style="opacity:0.1" />
      <path
         id="path3879"
         d="m 1187.9358,443.01115 c 0,0 -7.5132,5.59924 -11.6555,1.19983 -4.1424,-4.39941 11.6555,-1.19983 11.6555,-1.19983 z"
         inkscape:connector-curvature="0"
         style="opacity:0.1" />
      <path
         id="path3881"
         d="m 1216.1353,297.03082 c -0.4032,0.59991 -25.3999,45.59385 -31.999,48.99339 -6.5991,3.39954 31.999,-48.99339 31.999,-48.99339 z"
         inkscape:connector-curvature="0"
         style="opacity:0.1" />
      <path
         id="path3883"
         d="m 1214.9322,314.02855 c 0,0.99987 -24.3967,53.19284 -28.3962,53.79276 -3.9995,0.59992 28.3962,-53.79276 28.3962,-53.79276 z"
         inkscape:connector-curvature="0"
         style="opacity:0.1" />
      <path
         id="path3885"
         d="m 1122.1447,347.624 c 0,0 -11.7829,25.16161 -16.3978,26.59641 -4.6149,1.4348 16.3978,-26.59641 16.3978,-26.59641 z"
         inkscape:connector-curvature="0"
         style="opacity:0.1" />
      <path
         id="path3887"
         d="m 1120.145,336.42555 c 0,0 -4.062,8.79881 -6.5304,8.79881 -2.4684,0 6.5304,-8.79881 6.5304,-8.79881 z"
         inkscape:connector-curvature="0"
         style="opacity:0.1" />
      <path
         id="path3889"
         d="m 1233.7339,165.85639 a 34.46269,34.46269 0 0 1 -1.73,10.8 28.26947,28.26947 0 0 1 -1,2.65 10.17243,10.17243 0 0 1 -4.8501,-2.13 12.00764,12.00764 0 0 1 -3.6299,-3.88 48.61159,48.61159 0 0 1 -1.77,-5.05 11.74816,11.74816 0 0 0 -9.49,-7.19 c 1.1499,1.96 -0.6801,4.65 -2.9301,5 -2.25,0.34 -4.44,-1 -5.99,-2.67 -1.5499,-1.67 -2.67,-3.7 -4.2101,-5.37 -1.5499,-1.67 -3.74,-3.01 -5.99,-2.67 -1.99,0.3 -3.53,1.82 -5.1999,2.95 -1.6599,1.13 -3.99,1.89 -5.6,0.68 -0.9,-0.67 -1.34,-1.81 -2.2001,-2.54 -2.21,-1.85 -5.6499,0.06 -7.28,2.45 -2.51,3.7 -4.0399,5.94 -7.2999,7.61 -0.02,-0.21 -0.02,-0.43 -0.02,-0.64 a 34.59505,34.59505 0 1 1 69.1901,0 z"
         inkscape:connector-curvature="0"
         style="opacity:0.1" />
      <path
         id="path3891"
         d="m 1171.867,157.88589 c 1.6271,-2.39179 5.065,-4.30409 7.2812,-2.44484 0.8602,0.72163 1.2991,1.86275 2.1959,2.53842 1.6072,1.211 3.9404,0.45116 5.6027,-0.68291 1.6624,-1.13407 3.2066,-2.64717 5.196,-2.94988 2.2505,-0.34244 4.4436,0.99889 5.989,2.67028 1.5455,1.67139 2.6657,3.69912 4.2116,5.37007 1.5459,1.67095 3.74,3.01111 5.9902,2.66675 2.2502,-0.34436 4.0846,-3.03692 2.928,-4.99753 a 11.75059,11.75059 0 0 1 9.4876,7.18953 48.68984,48.68984 0 0 0 1.7716,5.04921 11.97717,11.97717 0 0 0 3.6344,3.87646 c 1.8351,1.34511 4.0589,2.47941 6.3005,2.08931 2.2415,-0.3901 4.1389,-2.95858 3.0971,-4.98136 0.7163,1.08793 2.2542,-0.4275 2.4868,-1.70913 a 18.28969,18.28969 0 0 0 -0.4624,-8.44019 c -1.1051,-3.71706 -3.4232,-7.40323 -2.5299,-11.17679 0.7073,-2.98761 3.2604,-5.13283 4.8102,-7.78312 2.7475,-4.69829 2.0184,-11.02728 -1.3228,-15.32373 a 17.42237,17.42237 0 0 0 -14.394,-6.30906 23.79953,23.79953 0 0 1 -4.5258,0.0843 c -2.5106,-0.37282 -4.6338,-1.9889 -6.6345,-3.55069 l -16.7502,-13.07518 a 20.61143,20.61143 0 0 0 -6.3313,-3.81453 c -2.3671,-0.73412 -5.2047,-0.48084 -6.957,1.27168 -3.136,3.13639 -1.1426,8.53378 -2.4017,12.78656 -1.0905,3.68345 -4.601,6.17966 -8.2353,7.42386 -3.6344,1.2442 -7.5233,1.51731 -11.2577,2.418 a 6.17672,6.17672 0 0 0 -3.0126,1.40276 5.95866,5.95866 0 0 0 -1.3089,4.25152 23.173,23.173 0 0 0 2.6002,10.81387 c 1.9398,3.73042 5.0141,7.56469 3.926,11.62606 -0.5759,2.14948 -2.2319,3.80549 -3.692,5.48482 -3.1654,3.64058 -4.2337,9.02 1.7224,7.14084 5.7374,-1.81016 7.3468,-4.15604 10.5847,-8.91538 z"
         inkscape:connector-curvature="0"
         style="fill:#434175" />
      <g
         id="g3899"
         style="opacity:0.1"
         transform="translate(387.17639,-180.43017)">
        <path
           id="path3893"
           transform="translate(-41,-48.59028)"
           d="m 891.86675,396.64816 c -0.23266,1.28168 -1.77051,2.79706 -2.48681,1.70917 1.04174,2.02276 -0.8556,4.59124 -3.09717,4.98132 -2.24157,0.39008 -4.46533,-0.7442 -6.30042,-2.0893 a 11.976,11.976 0 0 1 -3.6344,-3.87646 48.691,48.691 0 0 1 -1.7716,-5.04919 11.75062,11.75062 0 0 0 -9.48767,-7.18952 c 1.15673,1.96057 -0.67774,4.65314 -2.928,4.9975 -2.25026,0.34436 -4.44422,-0.99579 -5.99011,-2.66675 -1.54589,-1.67096 -2.66614,-3.69867 -4.21155,-5.37006 -1.54541,-1.67139 -3.73853,-3.01269 -5.989,-2.67028 -1.9895,0.30273 -3.53357,1.81579 -5.196,2.94989 -1.66243,1.1341 -3.99548,1.89392 -5.60278,0.68292 -0.89673,-0.67566 -1.3357,-1.81683 -2.19581,-2.53845 -2.21618,-1.85926 -5.654,0.0531 -7.28125,2.44482 -3.23779,4.7594 -4.84716,7.10523 -10.58471,8.91541 -1.88343,0.59423 -3.06092,0.45983 -3.69531,-0.1131 -1.259,2.89142 -0.68567,5.43786 3.69531,4.05566 5.73755,-1.81018 7.34692,-4.15607 10.58471,-8.9154 1.6272,-2.39179 5.06507,-4.30408 7.28125,-2.44483 0.86011,0.72162 1.29908,1.86273 2.19581,2.53839 1.6073,1.211 3.94043,0.45118 5.60278,-0.68286 1.66235,-1.13404 3.20654,-2.64721 5.196,-2.94989 2.25049,-0.34247 4.44361,0.9989 5.989,2.67029 1.54539,1.67139 2.66565,3.6991 4.21155,5.37006 1.5459,1.67096 3.74,3.0111 5.99011,2.66674 2.25011,-0.34436 4.08471,-3.03692 2.928,-4.99755 a 11.75067,11.75067 0 0 1 9.48767,7.18957 48.701,48.701 0 0 0 1.7716,5.0492 11.97657,11.97657 0 0 0 3.6344,3.87646 c 1.83509,1.34509 4.059,2.47937 6.30042,2.08929 2.24142,-0.39008 4.13891,-2.95855 3.09717,-4.98138 0.7163,1.088 2.25415,-0.42749 2.48681,-1.70911 a 18.26312,18.26312 0 0 0 0.18042,-5.23108 c -0.0464,0.43136 -0.10303,0.86158 -0.18042,1.28852 z"
           inkscape:connector-curvature="0" />
        <path
           id="path3895"
           transform="translate(-41,-48.59028)"
           d="m 817.02788,379.40536 c 0.0153,-0.0514 0.0374,-0.0998 0.0513,-0.15186 1.08814,-4.06134 -1.98632,-7.89563 -3.926,-11.626 a 23.17661,23.17661 0 0 1 -2.4856,-8.44593 11.226,11.226 0 0 0 -0.11462,1.57459 23.17266,23.17266 0 0 0 2.6002,10.81384 c 1.32593,2.55008 3.18054,5.14884 3.87475,7.83536 z"
           inkscape:connector-curvature="0" />
        <path
           id="path3897"
           transform="translate(-41,-48.59028)"
           d="m 893.68462,369.24807 c -1.5498,2.65033 -4.103,4.79553 -4.8103,7.78314 a 8.682,8.682 0 0 0 0.0354,3.83179 c 0.74439,-2.9284 3.24487,-5.056 4.7749,-7.67236 a 13.14208,13.14208 0 0 0 1.53992,-8.44263 12.3725,12.3725 0 0 1 -1.53992,4.50006 z"
           inkscape:connector-curvature="0" />
      </g>
      <path
         id="path3901"
         d="m 1116.9334,321.07555 v 0.004 a 30.53357,30.53357 0 0 1 0.6119,3.34754 c 0,0 15.7979,36.995 17.7976,39.19472 0.6159,0.67591 2.9356,4.00347 5.8512,8.28687 1.0559,1.54779 2.1877,3.22357 3.3476,4.94333 6.0471,8.97479 12.7982,19.16544 12.7982,19.16544 l 14.798,12.99825 c 0,0 32.1917,2.57565 42.4223,-7.87094 -1.2398,-0.8639 -2.0277,-1.32782 -2.0277,-1.32782 l -4.3994,-3.41954 c -2.2717,-3.83149 -10.9585,-7.563 -19.7534,-10.49461 -8.1029,0.06 -14.73,0.71592 -14.73,0.71592 l -2.1077,-5.55125 -2.1997,-5.79121 -11.1865,-29.452 c 0,0 -7.215,-37.195 -9.6147,-38.99475 -2.3997,-1.79975 -1.7997,-7.399 -1.7997,-7.399 0,0 4.3994,-15.79787 2.7996,-17.99757 -1.5998,-2.1997 2.5996,-18.39752 2.5996,-18.39752 a 16.77811,16.77811 0 0 0 -1.9197,-4.48741 l -30.8759,58.6801 c 0,0 -1.0238,1.66776 -2.4116,3.84745 z"
         inkscape:connector-curvature="0"
         style="opacity:0.1" />
      <path
         id="path3903"
         d="m 1152.5406,261.83555 c 0,0 -4.1994,16.19781 -2.5997,18.39752 1.5998,2.19971 -2.7995,17.99758 -2.7995,17.99758 0,0 -0.6,5.59925 1.7997,7.399 2.3997,1.79975 9.6143,38.99474 9.6143,38.99474 l 15.4934,40.79451 c 0,0 48.4824,-4.79936 43.483,10.39859 -4.9993,15.19795 -44.9939,11.99839 -44.9939,11.99839 l -14.798,-12.99825 c 0,0 -19.9973,-30.19593 -21.997,-32.39564 -1.9997,-2.19971 -17.7976,-39.19471 -17.7976,-39.19471 0,0 -0.7999,-7.399 -4.1994,-11.1985 -3.3996,-3.7995 -0.7999,-10.22591 -0.7999,-10.22591 0,0 -4.1995,-48.36619 0.2,-54.16541 4.3994,-5.79922 34.7952,-3.19956 39.3946,14.19809 z"
         inkscape:connector-curvature="0"
         style="fill:#ee8e9e" />
      <path
         id="path3905"
         d="m 1127.7439,231.43965 -12.5983,7.599 c 0,0 -3.5995,12.19836 -6.3991,13.79814 0,0 25.1966,-13.99811 44.194,18.19755 0,0 -0.5999,-4.19944 1.9998,-6.19917 2.5996,-1.99973 1.9997,-10.59857 1.9997,-10.59857 a 34.62783,34.62783 0 0 0 1.7998,-4.19943 c 1.7997,-4.39943 -7.599,-29.59603 -30.9959,-18.59752 z"
         inkscape:connector-curvature="0"
         style="opacity:0.1" />
      <path
         id="path3907"
         d="m 1127.344,230.63976 -12.5983,7.599 c 0,0 -3.5995,12.19835 -6.3992,13.79814 0,0 25.1966,-13.99812 44.194,18.19755 0,0 -0.5999,-4.19944 1.9998,-6.19917 2.5996,-1.99973 1.9997,-10.59857 1.9997,-10.59857 a 34.628,34.628 0 0 0 1.7998,-4.19944 c 1.7998,-4.39942 -7.599,-29.59603 -30.9958,-18.59751 z"
         inkscape:connector-curvature="0"
         style="fill:#434175" />
      <ellipse
         id="ellipse3909"
         ry="39.865372"
         rx="37.556911"
         cy="540.98041"
         cx="1015.0551"
         style="fill:#fbd56f" />
      <ellipse
         id="ellipse3911"
         ry="39.865372"
         rx="37.556911"
         cy="540.98041"
         cx="1015.0551"
         style="opacity:0.1" />
      <ellipse
         id="ellipse3913"
         ry="38.977501"
         rx="37.556911"
         cy="541.86829"
         cx="1021.5366"
         style="fill:#fbd56f" />
      <ellipse
         id="ellipse3915"
         ry="7.8414698"
         rx="46.385689"
         cy="555.04663"
         cx="477.31918"
         style="fill:#6c63ff" />
      <path
         id="path3917"
         d="m 496.49939,542.21802 c 1.9865,-1.84587 3.85,-4.02343 4.42238,-6.67409 0.57238,-2.65066 -0.55733,-5.82918 -3.09023,-6.79772 -2.83814,-1.08534 -5.87095,0.882 -8.17033,2.86845 -2.29938,1.98645 -4.93467,4.254 -7.944,3.83335 a 12.09383,12.09383 0 0 0 3.74017,-11.319 4.72823,4.72823 0 0 0 -1.04018,-2.29856 c -1.57548,-1.68433 -4.43155,-0.961 -6.318,0.36591 -5.99917,4.21978 -7.67313,12.36876 -7.70577,19.70332 -0.605,-2.64562 -0.0954,-5.40251 -0.11036,-8.11641 -0.0149,-2.7139 -0.75865,-5.72232 -3.048,-7.17991 a 9.182,9.182 0 0 0 -4.64878,-1.09267 c -2.69672,-0.0992 -5.7002,0.17116 -7.54186,2.14353 -2.28826,2.45069 -1.69479,6.56252 0.29593,9.26048 1.99072,2.69796 5.01878,4.38843 7.806,6.252 a 17.30858,17.30858 0 0 1 5.57844,5.32076 5.26669,5.26669 0 0 1 0.41355,0.95058 h 16.90604 a 47.11021,47.11021 0 0 0 10.455,-7.22002 z"
         inkscape:connector-curvature="0"
         style="fill:#6c63ff" />
      <path
         id="path3919"
         d="m 896.7977,503.91382 a 40.43626,40.43626 0 0 1 5.02752,9.18054 c 0.3359,0.84417 0.6647,1.73114 0.9758,2.66168 4.9973,14.93518 -2.92108,32.845 -5.18487,30.91315 -2.26379,-1.93185 -9.31824,-5.5163 -10.68228,-0.47931 -1.36404,5.03699 -6.40284,10.1853 -6.40284,10.1853 -9.18017,9.23346 -17.48977,-0.7428 -22.94418,-11.05048 a 99.84636,99.84636 0 0 1 -4.74548,-10.48523 c -1.211,-3.16558 -1.90656,-5.35339 -1.90656,-5.35339 l 38.23682,-32.57873 c 0,0 3.6965,1.69708 7.62607,7.00647 z"
         inkscape:connector-curvature="0"
         style="fill:#6c63ff" />
      <path
         id="path3921"
         d="m 836.53369,524.74585 a 40.43668,40.43668 0 0 1 5.0275,9.18054 c 0.33593,0.84418 0.66473,1.73114 0.97583,2.66168 4.99731,14.93518 -2.92109,32.845 -5.18485,30.91315 -2.26376,-1.93185 -9.31824,-5.5163 -10.68228,-0.47931 -1.36404,5.03699 -6.40283,10.1853 -6.40283,10.1853 -9.18018,9.23346 -17.48978,-0.7428 -22.94419,-11.05047 a 99.84934,99.84934 0 0 1 -4.74548,-10.48519 c -1.211,-3.16559 -1.90655,-5.3534 -1.90655,-5.3534 l 38.23681,-32.57873 c 0,0 3.69647,1.69698 7.62604,7.00643 z"
         inkscape:connector-curvature="0"
         style="fill:#6c63ff" />
      <path
         id="path3923"
         d="m 715.53033,553.52545 a 40.43562,40.43562 0 0 1 -1.98837,10.27637 c -0.28012,0.86431 -0.59305,1.757 -0.94739,2.672 -5.68417,14.6875 -23.21017,23.42243 -23.72018,20.49042 -0.51001,-2.93201 -3.65347,-10.19366 -7.91815,-7.18634 -4.26468,3.00732 -11.42957,3.75519 -11.42957,3.75519 -12.96033,1.25 -12.991,-11.73371 -10.61188,-23.15033 a 99.84576,99.84576 0 0 1 3.03812,-11.10083 c 1.08792,-3.2099 1.94867,-5.3382 1.94867,-5.3382 l 50.22916,-0.67926 c 0,0 1.76272,3.66558 1.39959,10.26098 z"
         inkscape:connector-curvature="0"
         style="fill:#6c63ff" />
      <path
         id="path3925"
         d="m 650.63157,537.15747 a 40.4359,40.4359 0 0 1 -1.98837,10.27636 c -0.2801,0.86432 -0.593,1.757 -0.9474,2.672 -5.68416,14.6875 -23.21022,23.42243 -23.72022,20.49042 -0.51,-2.93201 -3.65347,-10.19367 -7.91816,-7.18634 -4.26469,3.00733 -11.42957,3.75519 -11.42957,3.75519 -12.96033,1.25 -12.991,-11.73371 -10.61189,-23.15033 a 99.84793,99.84793 0 0 1 3.03812,-11.10083 c 1.08793,-3.2099 1.94866,-5.3382 1.94866,-5.3382 l 50.22915,-0.67926 c 0,0 1.76281,3.66553 1.39968,10.26099 z"
         inkscape:connector-curvature="0"
         style="fill:#6c63ff" />
      <path
         id="path3927"
         style="opacity:0.2;isolation:isolate"
         d="m 896.7977,503.91382 a 40.43626,40.43626 0 0 1 5.02752,9.18054 c 0.3359,0.84417 0.6647,1.73114 0.9758,2.66168 4.9973,14.93518 -2.92108,32.845 -5.18487,30.91315 -2.26379,-1.93185 -9.31824,-5.5163 -10.68228,-0.47931 -1.36404,5.03699 -6.40284,10.1853 -6.40284,10.1853 -9.18017,9.23346 -17.48977,-0.7428 -22.94418,-11.05048 a 99.84636,99.84636 0 0 1 -4.74548,-10.48523 c -1.211,-3.16558 -1.90656,-5.35339 -1.90656,-5.35339 l 38.23682,-32.57873 c 0,0 3.6965,1.69708 7.62607,7.00647 z"
         inkscape:connector-curvature="0" />
      <path
         id="path3929"
         style="opacity:0.2;isolation:isolate"
         d="m 836.53369,524.74585 a 40.43668,40.43668 0 0 1 5.0275,9.18054 c 0.33593,0.84418 0.66473,1.73114 0.97583,2.66168 4.99731,14.93518 -2.92109,32.845 -5.18485,30.91315 -2.26376,-1.93185 -9.31824,-5.5163 -10.68228,-0.47931 -1.36404,5.03699 -6.40283,10.1853 -6.40283,10.1853 -9.18018,9.23346 -17.48978,-0.7428 -22.94419,-11.05047 a 99.84934,99.84934 0 0 1 -4.74548,-10.48519 c -1.211,-3.16559 -1.90655,-5.3534 -1.90655,-5.3534 l 38.23681,-32.57873 c 0,0 3.69647,1.69698 7.62604,7.00643 z"
         inkscape:connector-curvature="0" />
      <path
         id="path3931"
         style="opacity:0.2;isolation:isolate"
         d="m 715.53033,553.52545 a 40.43562,40.43562 0 0 1 -1.98837,10.27637 c -0.28012,0.86431 -0.59305,1.757 -0.94739,2.672 -5.68417,14.6875 -23.21017,23.42243 -23.72018,20.49042 -0.51001,-2.93201 -3.65347,-10.19366 -7.91815,-7.18634 -4.26468,3.00732 -11.42957,3.75519 -11.42957,3.75519 -12.96033,1.25 -12.991,-11.73371 -10.61188,-23.15033 a 99.84576,99.84576 0 0 1 3.03812,-11.10083 c 1.08792,-3.2099 1.94867,-5.3382 1.94867,-5.3382 l 50.22916,-0.67926 c 0,0 1.76272,3.66558 1.39959,10.26098 z"
         inkscape:connector-curvature="0" />
      <path
         id="path3933"
         style="opacity:0.2;isolation:isolate"
         d="m 650.63157,537.15747 a 40.4359,40.4359 0 0 1 -1.98837,10.27636 c -0.2801,0.86432 -0.593,1.757 -0.9474,2.672 -5.68416,14.6875 -23.21022,23.42243 -23.72022,20.49042 -0.51,-2.93201 -3.65347,-10.19367 -7.91816,-7.18634 -4.26469,3.00733 -11.42957,3.75519 -11.42957,3.75519 -12.96033,1.25 -12.991,-11.73371 -10.61189,-23.15033 a 99.84793,99.84793 0 0 1 3.03812,-11.10083 c 1.08793,-3.2099 1.94866,-5.3382 1.94866,-5.3382 l 50.22915,-0.67926 c 0,0 1.76281,3.66553 1.39968,10.26099 z"
         inkscape:connector-curvature="0" />
      <path
         id="ill_pigbody"
         d="m 998.79242,317.02368 c 0,134.15881 -45.384,242.91608 -254.8201,242.91608 -140.73325,0 -249.61209,-34.968 -254.82008,-242.91608 -3.359,-134.11682 114.08677,-242.916107 254.82,-242.916107 140.73323,0 254.82018,108.757227 254.82018,242.916107 z"
         inkscape:connector-curvature="0"
         style="fill:#6c63ff" />
      <path
         id="path3937"
         style="opacity:0.2;isolation:isolate"
         d="m 696.17026,78.348353 h 0.0298 a 0.05793,0.05793 0 0 1 -0.0223,0.007 z"
         inkscape:connector-curvature="0" />
      <path
         id="path3939"
         style="opacity:0.2;isolation:isolate"
         d="m 696.66879,78.266553 c 0.64728,-0.10413 1.92694,-0.28272 3.78693,-0.42411 l -4.14411,0.49106 q 0.0893,-0.0223 0.22318,-0.0446 c 0.0447,-0.007 0.0819,-0.0149 0.134,-0.0223 z"
         inkscape:connector-curvature="0" />
      <path
         id="path3941"
         style="opacity:0.2;isolation:isolate"
         d="m 884.96033,177.52355 -18.6,6.696 A 415.47072,415.47072 0 0 0 835.80424,147.79328 298.49667,298.49667 0 0 0 797.10883,113.13035 C 749.48536,77.834973 712.64991,76.934733 700.48548,77.842353 l 27.95954,-3.28845 a 227.31886,227.31886 0 0 1 75.06219,27.133697 247.97733,247.97733 0 0 1 45.10873,33.32376 c 24.34368,22.59536 36.34439,42.51219 36.34439,42.51219 z"
         inkscape:connector-curvature="0" />
      <path
         id="path3943"
         style="opacity:0.2;isolation:isolate"
         d="m 716.81628,190.1716 c 0,0 -24.552,-81.84 -3.72,-104.159997 0,0 32.736,-11.16 57.288,52.079997 z"
         inkscape:connector-curvature="0" />
      <path
         id="path3945"
         d="m 841.1383,113.73318 c 0,0 65.10952,-55.329307 93.91312,-45.204707 0,0 23.3584,25.50644 -24.7144,73.371947 z"
         inkscape:connector-curvature="0"
         style="fill:#6c63ff" />
      <path
         id="path3947"
         style="opacity:0.2;isolation:isolate"
         d="m 841.1383,113.73318 c 0,0 65.10952,-55.329307 93.91312,-45.204707 0,0 23.3584,25.50644 -24.7144,73.371947 z"
         inkscape:connector-curvature="0" />
      <path
         id="path3949"
         d="m 1044.1764,378.77569 c 0,72.113 -51.74838,129.084 -100.43998,129.084 -48.69162,0 -75.88803,-56.97107 -75.88803,-129.084 0,-72.11293 39.55403,-127.75406 88.16403,-130.57205 77.00398,-4.46402 88.16398,58.45908 88.16398,130.57205 z"
         inkscape:connector-curvature="0"
         style="fill:#6c63ff" />
      <path
         id="ill_pighead"
         style="opacity:0.2;isolation:isolate"
         d="m 1044.1764,378.77569 c 0,72.113 -51.74838,129.084 -100.43998,129.084 -48.69162,0 -75.88803,-56.97107 -75.88803,-129.084 0,-72.11293 39.55403,-127.75406 88.16403,-130.57205 77.00398,-4.46402 88.16398,58.45908 88.16398,130.57205 z"
         inkscape:connector-curvature="0" />
      <ellipse
         id="ellipse3953"
         ry="20.832029"
         rx="16.36801"
         cy="389.56366"
         cx="940.76025"
         style="fill:#6c63ff" />
      <ellipse
         id="ellipse3955"
         ry="20.832029"
         rx="16.367979"
         cy="371.7077"
         cx="998.79236"
         style="fill:#6c63ff" />
      <path
         id="ill_coin"
         d="m 851.79285,121.57476 a 29.70279,29.70279 0 0 1 -3.17692,13.43665 28.55141,28.55141 0 0 1 -12.8117,12.78192 298.49667,298.49667 0 0 0 -38.69541,-34.66293 29.161,29.161 0 0 1 6.39838,-11.44272 27.42912,27.42912 0 0 1 20.34094,-9.113997 c 15.43061,-1e-5 27.94471,12.982737 27.94471,29.001077 z"
         inkscape:connector-curvature="0"
         style="fill:#fad46f" />
    </g>
  </g>
</svg>
